<?xml version="1.0" encoding="UTF-8" standalone="no"?>
<!-- Created with Inkscape (http://www.inkscape.org/) -->

<svg
   version="1.1"
   id="svg32"
   width="480"
   height="480"
   viewBox="0 0 480 480"
   xmlns="http://www.w3.org/2000/svg"
   xmlns:svg="http://www.w3.org/2000/svg">
  <defs
     id="defs36" />
  <g
     id="g38">
    <path
       style="fill:#a7172e;fill-opacity:1"
       d="M 127.97769,163.18419 C 161.92448,120.91602 232.92636,40.187121 276.23959,33.301935 319.55282,26.41675 350.82871,39.82554 357.94875,154.70389 365.0688,269.58223 333.40629,536.81121 219.00849,422.97866 104.61069,309.1461 -39.135031,62.528784 123.82219,77.828496 286.77942,93.128212 590.63924,250.09528 395.69761,320.95407 172.33841,402.14229 -5.19779,419.50917 44.064724,298.37731 89.033354,187.80372 133.04288,185.15982 132.44671,188.50738 c -0.59618,3.34756 0.59037,16.27761 -5.97275,22.41536 -6.56311,6.13775 -12.74084,17.31012 -22.90885,29.42185 -31.475006,37.49175 -79.225916,125.49477 0.62294,118.8458 C 213.43057,350.09382 559.30651,309.45033 397.48151,206.3281 235.6565,103.20586 21.723284,47.021642 76.282634,167.00105 130.84198,286.98045 280.31797,535.50613 310.91739,369.49622 341.51682,203.4863 342.26702,151.81888 328.56107,108.80302 314.85511,65.787168 307.10932,41.630183 255.81354,71.384329 c -51.29578,29.754141 -86.91709,79.175391 -94.82228,93.079601 -7.90519,13.90421 -12.47503,13.15498 -16.03437,2.07852 -2.3503,-6.71217 -30.47556,13.90658 -16.9792,-3.35826 z"
       id="path272" />
  </g>
</svg>
