<?xml version="1.0" encoding="UTF-8" standalone="no"?>
<!-- Created with Inkscape (http://www.inkscape.org/) -->

<svg
   version="1.1"
   id="svg32"
   width="480"
   height="480"
   viewBox="0 0 480 480"
   xmlns="http://www.w3.org/2000/svg"
   xmlns:svg="http://www.w3.org/2000/svg">
  <defs
     id="defs36" />
  <path
     style="display:none;fill:#000000;fill-opacity:1;fill-rule:nonzero"
     id="path3225"
     d="M 233.68774,342.22864 150.23975,234.85286 14.478206,242.72236 90.811793,130.17766 41.374836,3.4925635 171.99958,41.311895 277.2074,-44.853292 281.60435,91.065035 396.06332,164.49712 268.15604,210.67993 Z"
     transform="matrix(1.2797423,0,0,1.3040989,-23.208342,47.169401)" />
  <path
     style="fill:#ffffff;fill-opacity:1"
     d="m 140.85198,135.56427 c 23.722,-29.76703 91.67817,-110.3872 134.9914,-117.272385 43.31323,-6.885185 70.85318,7.181602 79.67193,137.983665 C 364.33407,287.07761 337.5148,494.58196 227.59718,442.78146 117.67956,390.98095 -16.421992,94.318204 87.143792,66.070084 190.70958,37.821963 601.22134,230.83262 392.07093,306.85613 182.92052,382.87963 -16.204138,410.20285 30.911434,294.35012 78.027006,178.49739 147.7226,168.86665 147.12642,172.21421 c -0.59618,3.34756 25.10655,-21.89916 26.49198,-13.377 1.38543,8.52216 -55.74765,62.705 -76.569164,87.50674 -20.82151,24.80174 -75.411753,92.44941 18.817114,75.95536 94.22887,-16.49405 397.93883,-17.0328 241.36189,-123.99163 C 200.6513,91.348839 58.380691,51.553701 101.0739,158.56765 143.76712,265.58159 225.35631,458.7339 264.8063,391.32262 304.25629,323.91135 335.5347,43.861603 280.52281,60.374424 c -55.0119,16.51282 -81.01149,57.376416 -94.43193,62.883506 -13.42044,5.50709 -18.9744,23.17376 -33.08192,23.90548 -14.10752,0.73171 -35.87898,18.16789 -12.15698,-11.59914 z"
     id="path272" />
</svg>
